<svg width="23" height="23" viewBox="0 0 23 23" fill="none" xmlns="http://www.w3.org/2000/svg">
<path d="M10.4583 3.1665V1.08317C10.4583 0.510254 10.9271 0.0415039 11.5 0.0415039C12.0729 0.0415039 12.5417 0.510254 12.5417 1.08317V3.1665C12.5417 3.73942 12.0729 4.20817 11.5 4.20817C10.9271 4.20817 10.4583 3.73942 10.4583 3.1665ZM18.125 6.34359L19.5937 4.86442C20 4.45817 20 3.80192 19.5937 3.39567C19.1875 2.98942 18.5312 2.98942 18.125 3.39567L16.6562 4.87484C16.25 5.28109 16.25 5.93734 16.6562 6.34359C17.0625 6.74984 17.7187 6.74984 18.125 6.34359ZM21.9167 10.4582H19.8333C19.2604 10.4582 18.7917 10.9269 18.7917 11.4998C18.7917 12.0728 19.2604 12.5415 19.8333 12.5415H21.9167C22.4896 12.5415 22.9583 12.0728 22.9583 11.4998C22.9583 10.9269 22.4896 10.4582 21.9167 10.4582ZM11.5 18.7915C10.9271 18.7915 10.4583 19.2603 10.4583 19.8332V21.9165C10.4583 22.4894 10.9271 22.9582 11.5 22.9582C12.0729 22.9582 12.5417 22.4894 12.5417 21.9165V19.8332C12.5417 19.2603 12.0729 18.7915 11.5 18.7915ZM4.87499 6.34359L3.39582 4.87484C2.98957 4.46859 2.98957 3.80192 3.39582 3.40609C3.80207 3.01025 4.46874 2.99984 4.86457 3.40609L6.33332 4.87484C6.73957 5.28109 6.73957 5.94775 6.33332 6.34359C5.92707 6.73942 5.27082 6.74984 4.87499 6.34359ZM16.6562 16.6561C16.25 17.0623 16.25 17.729 16.6562 18.1248L18.125 19.5936C18.5312 19.9998 19.1979 19.9998 19.5937 19.5936C20 19.1873 20 18.5207 19.5937 18.1248L18.125 16.6561C17.7292 16.2498 17.0625 16.2498 16.6562 16.6561ZM1.08332 12.5415H3.16666C3.73957 12.5415 4.20832 12.0728 4.20832 11.4998C4.20832 10.9269 3.73957 10.4582 3.16666 10.4582H1.08332C0.510406 10.4582 0.0416565 10.9269 0.0416565 11.4998C0.0416565 12.0728 0.510406 12.5415 1.08332 12.5415ZM4.87499 19.604L6.34374 18.1353C6.74999 17.729 6.74999 17.0623 6.34374 16.6665C5.93749 16.2707 5.27082 16.2603 4.87499 16.6665L3.40624 18.1353C2.99999 18.5415 2.99999 19.2082 3.40624 19.604C3.80207 20.0103 4.46874 20.0103 4.87499 19.604ZM11.5 5.24984C8.05207 5.24984 5.24999 8.05192 5.24999 11.4998C5.24999 14.9478 8.05207 17.7498 11.5 17.7498C14.9479 17.7498 17.75 14.9478 17.75 11.4998C17.75 8.05192 14.9479 5.24984 11.5 5.24984Z" fill="#FAAA5D"/>
</svg>
