<svg width="23" height="23" viewBox="0 0 23 23" fill="none" xmlns="http://www.w3.org/2000/svg">
<path d="M10.4584 3.1665V1.08317C10.4584 0.510254 10.9272 0.0415039 11.5001 0.0415039C12.073 0.0415039 12.5417 0.510254 12.5417 1.08317V3.1665C12.5417 3.73942 12.073 4.20817 11.5001 4.20817C10.9272 4.20817 10.4584 3.73942 10.4584 3.1665ZM18.1251 6.34359L19.5938 4.86442C20.0001 4.45817 20.0001 3.80192 19.5938 3.39567C19.1876 2.98942 18.5313 2.98942 18.1251 3.39567L16.6563 4.87484C16.2501 5.28109 16.2501 5.93734 16.6563 6.34359C17.0626 6.74984 17.7188 6.74984 18.1251 6.34359ZM21.9167 10.4582H19.8334C19.2605 10.4582 18.7917 10.9269 18.7917 11.4998C18.7917 12.0728 19.2605 12.5415 19.8334 12.5415H21.9167C22.4897 12.5415 22.9584 12.0728 22.9584 11.4998C22.9584 10.9269 22.4897 10.4582 21.9167 10.4582ZM11.5001 18.7915C10.9272 18.7915 10.4584 19.2603 10.4584 19.8332V21.9165C10.4584 22.4894 10.9272 22.9582 11.5001 22.9582C12.073 22.9582 12.5417 22.4894 12.5417 21.9165V19.8332C12.5417 19.2603 12.073 18.7915 11.5001 18.7915ZM4.87508 6.34359L3.39591 4.87484C2.98966 4.46859 2.98966 3.80192 3.39591 3.40609C3.80216 3.01025 4.46883 2.99984 4.86466 3.40609L6.33341 4.87484C6.73966 5.28109 6.73966 5.94775 6.33341 6.34359C5.92716 6.73942 5.27091 6.74984 4.87508 6.34359ZM16.6563 16.6561C16.2501 17.0623 16.2501 17.729 16.6563 18.1248L18.1251 19.5936C18.5313 19.9998 19.198 19.9998 19.5938 19.5936C20.0001 19.1873 20.0001 18.5207 19.5938 18.1248L18.1251 16.6561C17.7292 16.2498 17.0626 16.2498 16.6563 16.6561ZM1.08341 12.5415H3.16675C3.73966 12.5415 4.20841 12.0728 4.20841 11.4998C4.20841 10.9269 3.73966 10.4582 3.16675 10.4582H1.08341C0.510498 10.4582 0.041748 10.9269 0.041748 11.4998C0.041748 12.0728 0.510498 12.5415 1.08341 12.5415ZM4.87508 19.604L6.34383 18.1353C6.75008 17.729 6.75008 17.0623 6.34383 16.6665C5.93758 16.2707 5.27091 16.2603 4.87508 16.6665L3.40633 18.1353C3.00008 18.5415 3.00008 19.2082 3.40633 19.604C3.80216 20.0103 4.46883 20.0103 4.87508 19.604ZM11.5001 5.24984C8.05216 5.24984 5.25008 8.05192 5.25008 11.4998C5.25008 14.9478 8.05216 17.7498 11.5001 17.7498C14.948 17.7498 17.7501 14.9478 17.7501 11.4998C17.7501 8.05192 14.948 5.24984 11.5001 5.24984Z" fill="white"/>
</svg>
